<svg id="SvgjsSvg1001" width="288" height="288" xmlns="http://www.w3.org/2000/svg" version="1.1" xmlns:xlink="http://www.w3.org/1999/xlink" xmlns:svgjs="http://svgjs.com/svgjs"><defs id="SvgjsDefs1002"></defs><g id="SvgjsG1008" transform="matrix(1,0,0,1,0,0)"><svg xmlns="http://www.w3.org/2000/svg" enable-background="new 0 0 922 775" viewBox="0 0 922 775" width="288" height="288"><path d="M884.3,582.3c0-41-0.4-82,0.1-123c0.3-28.1,1.6-56.3,2.8-84.4c2.5-59.2,5.2-118.5,7.7-177.7c1.5-36.3,2.9-72.6,4.3-108.9
	c1-25.8,1.9-51.6,3.1-77.4c0.1-2.4,1-5.6,2.7-6.9c1.9-1.5,5.7-2.3,7.6-1.3c1.8,1,3.2,4.6,3.2,7c0.6,40.2,0.8,80.3,1.2,120.5
	c0.4,38,0.9,76,1.2,114c0.6,93,1.6,186,1.6,278.9c0,52-1.8,103.9-3.1,155.9c-0.6,24.1-2,48.3-3,72.4c-0.1,3-0.3,6-0.8,9
	c-1.3,8.7-7.3,14.1-16,13.9c-50.6-0.9-101.3-2-151.9-3c-3.8-0.1-7.7-0.1-11.5-0.1c-52.2-0.5-104.3-1-156.5-1.5
	c-41.8-0.4-83.7-0.7-125.5-1.2c-31.3-0.4-62.7-0.9-94-1.6c-54.8-1.3-109.6-3.2-164.4-4.2c-41.5-0.7-83,0-124.5-0.3
	c-15.7-0.1-31.3-1.1-46.9-2C9,759.5,0.5,750.2,0.9,738c0.4-11.2,9.3-19.4,21.9-19.1c41.3,1.1,82.6,2.5,123.9,3.9
	c14.3,0.5,28.6,1.6,42.9,2c41,1,82,1.6,122.9,2.5c39.3,0.9,78.6,1.7,117.9,3c52.1,1.7,104.2,4,156.3,5.9
	c45.4,1.7,90.9,3.5,136.4,5.1c51,1.7,101.9,3.2,152.9,4.8c7.1,0.2,7,0.1,7-6.9c0-52.3,0-104.7,0-157
	C883.5,582.3,883.9,582.3,884.3,582.3z" fill="#ffffff" class="color000 svgShape"></path><path d="M403.5 505.5c2.4-3.3 4.4-6.1 6.4-9 20.8-28.9 41.6-57.9 62.5-86.8 4.7-6.5 10-8.6 16.4-6.5 6.1 2.1 8.5 7.1 9.2 13.1 6.7 55.4 13.2 110.8 20.2 166.1 2.2 17.7 5.8 35.1 8.6 52.7.9 5.9 1.4 11.9 1.4 17.9 0 10.4-7.2 19.5-15.9 20.8-12.9 1.9-21-2.8-25.2-15.1-2.1-6.1-1.9-13.1-2.2-19.7-1.3-27.9-2.2-55.9-3.5-83.8-1-21.1-2.2-42.2-3.4-63.4-.8-13.7-1.9-27.4-2.9-41.1-.5-.2-.9-.3-1.4-.5-1.6 2-3.2 4-4.7 6-17.7 23.6-35.5 47.1-53.2 70.7-1.5 2-3.2 3.9-5 5.6-4.5 4-11.2 3.9-15.3-.5-2.1-2.3-3.8-5-5.4-7.7-10.5-17.6-20.8-35.3-31.3-52.9-1.6-2.7-3.5-5.2-6.3-7.6-.5 6.5-1.1 13.1-1.4 19.6-2 48.1-3.9 96.2-5.8 144.3-.2 3.9-.5 7.6-5.4 8.1-3.6.3-6.1-2.9-6.1-8.1 0-12.3.2-24.7.2-37 0-40.2-.1-80.3 0-120.5 0-13.5.5-27 .7-40.5.1-4.8 1.7-8.7 6.4-10.2 4.9-1.6 9 .2 11.7 4.4 5.6 8.7 10.9 17.5 16.3 26.4 9.6 15.8 19.3 31.6 28.9 47.3C399.7 500.1 401.4 502.5 403.5 505.5zM523.2 65.5c-1.2 9.2-2.5 17.9-3.3 26.7-1.7 18.1-3.5 36.1-4.7 54.2-1.7 26.9-3 53.9-4.3 80.8-.2 3.7 0 7.3 0 11-.1 9.1-5 15-13.9 15.9-9.3.9-18.6.8-27.9 1.8-24.2 2.6-48.3 5.6-72.4 8.4-24.8 2.9-49.6 5.8-74.4 8.7-1.6.2-3.3.6-4.9.8-8.4 1.1-14.2-4.9-13.1-13.2.9-6.5 2.1-13.2 1.7-19.7-1.2-18.7 2.9-36.8 4.6-55.2 1.7-19.1 3.8-38.1 5.5-57.2 1.9-21.4 3.8-42.8 5.4-64.2.3-4.4-.4-8.9-.7-13.3-.1-1.7-1-3.5-.4-4.9.8-2.1 2.2-4.8 4.1-5.6 1.6-.7 5.2.3 6.1 1.7 2.7 4.6 6 4.4 10.7 3.9 6-.6 12.2.7 18.4 1 19 1 37.9 2.3 56.9 2.8 30.5.7 61 .8 91.5 1.1C517.6 51.1 523.3 56.6 523.2 65.5zM323.4 254.7c3.7-.5 6.1-.7 8.6-1.1 32.5-4.5 65-9 97.4-13.7 18.1-2.7 36.1-5.9 54.2-8.9 3.2-.5 4.5-2 4.6-5.3.1-4.3.8-8.6 1.1-12.9 2.9-42.2 5.8-84.4 8.6-126.6.2-3.3 0-6.5 0-10.9-54.5-.9-108.3-1.7-162.6-2.6-.6 9.9-1 18.4-1.5 27-1.5 25.6-3.4 51.2-4.5 76.8C328.1 202.4 329.7 228.2 323.4 254.7zM652 233.1c.9-3.4 2.2-7.9 3.3-12.5.4-1.7.6-3.6.3-5.4-4-29.2-8.2-58.3-12.1-87.5-3.6-26.7-6.9-53.5-10.2-80.2-.6-4.8-.6-9.7-.4-14.5.2-5.3 3.3-7.9 8.5-7.3 2.4.3 4.9 1.2 7.1 2.2 57.9 26.2 115.9 52.4 173.8 78.7 10.1 4.6 11.3 11.7 3.6 19.5-23.7 23.9-47.2 48-71.1 71.6-22.7 22.5-45.9 44.5-68.8 66.8-5.4 5.3-11.7 8.2-19 5.8-7.1-2.4-10.6-8.3-11.7-15.5C654.1 248.2 653.2 241.4 652 233.1zM650.1 44.4c0 2.6-.2 4.1 0 5.5 1.7 11.7 3.4 23.4 5.2 35.1 5.6 36.9 11 73.8 16.9 110.6 1.5 9.5-.1 20.2 8.7 27.8 2.3 2 3.6 2.4 5.7.5 4.1-3.7 8.2-7.3 12.4-10.9 30.5-26.6 61-53.2 91.5-79.9 5.2-4.6 10.4-9.1 16.5-14.4C754.2 93.7 702.5 69.2 650.1 44.4zM123.5 430.3c-1.8 3.2-3.2 5.3-4.3 7.5C94.5 491.9 69.8 545.9 45.2 600c-.9 1.9-1.1 4.2-1.6 6.3-.9 4.2-3.5 6.5-7.8 6.1-4.2-.4-6.9-3-6.9-7.2 0-3.4.7-7 2-10.1 19.4-48.7 38.9-97.4 58.3-146.2 4.2-10.7 7.5-21.7 11.7-32.4 3.6-8.9 7.7-17.7 12.2-26.2 5.3-10 16.7-10.3 23-.8 1.9 2.9 3.5 6.1 4.5 9.4 18.2 57.6 44.2 112.1 67 167.9 6.3 15.6 13.3 30.9 19.9 46.3 3.6 8.4 4.7 16.9-1.3 24.7-9.9 12.9-28.3 10.6-35.7-4.3-.7-1.5-1.3-3.1-1.8-4.6-8.9-28.1-17.7-56.2-26.7-84.2-11.5-35.5-23.3-70.8-35-106.2C126.2 436.1 125 433.8 123.5 430.3zM44.5 161.5c-.5 32-1 63.9-1.6 95.9-.1 3.3-.5 6.7-1 9.9-.7 4.1-2.8 7.1-7.4 7.4-5 .4-7.7-2.4-8.5-6.7-1.3-6.9-2.4-13.8-2.8-20.8-1.8-30.4-3.5-60.8-4.8-91.3-1.5-33.3-2.5-66.6-3.6-99.8-.1-3.2-.2-6.3-.1-9.5.3-9.2 5.8-15 14.9-15.5 19.1-1.1 38.2-2.3 57.4-3.1 30.8-1.2 61.6-2.1 92.4-3.1 12.8-.4 25.6-1.3 38.4-1 12.2.2 19.8 9.8 18.3 21.8-1 8.3-8.7 15.1-19.2 15.9-7.8.6-15.6.3-23.5.1-11.3-.2-22.6-.8-33.9-1.1C122.6 59.8 85.8 59.1 49 58c-5-.1-6.1 1.3-6.1 6.1.2 32.5.1 65 .1 97.4C43.5 161.5 44 161.5 44.5 161.5zM693.7 454.4c-.9 1.7-1.5 2.5-1.8 3.4-19.3 45.7-38.6 91.5-57.7 137.3-4.7 11.4-8.7 23-13.2 34.5-1 2.6-2.2 5.3-3.8 7.5-2.5 3.4-6.2 4.7-10.2 2.9-4.3-1.9-6.1-5.5-5.5-10.2.2-1.3.6-2.6 1.1-3.8 18-49.3 35.9-98.6 54-147.8 6.5-17.7 13.4-35.2 20.1-52.7 1.5-4 2.7-8.2 4.2-12.3 1.9-5.1 5.1-9.1 10.7-10.1 6.2-1.1 11.2.9 14.8 6.1 1.5 2.2 2.9 4.5 3.8 7 17.4 47.5 38.8 93.2 61 138.5 4.1 8.3 8.2 16.7 12.2 25.1 3.7 7.7 4.4 15.5-.3 22.9-4.9 7.8-12.3 11.4-21.7 10.2-8.4-1.1-15.9-8.1-18.5-17.4-2.6-9.1-5.7-18.1-8.6-27-8.7-26.4-17.2-52.9-26.1-79.2-3.6-10.6-8.1-20.8-12.2-31.2C695.4 456.9 694.7 456 693.7 454.4z" fill="#ffffff" class="color000 svgShape"></path></svg></g></svg>